<svg width="512" height="512" viewBox="0 0 512 512" fill="none" xmlns="http://www.w3.org/2000/svg">
<path d="M256 512C114.836 512 0 397.164 0 256C0 114.836 114.836 0 256 0C397.164 0 512 114.836 512 256C512 397.164 397.164 512 256 512ZM256 32C132.48 32 32 132.48 32 256C32 379.52 132.48 480 256 480C379.52 480 480 379.52 480 256C480 132.48 379.52 32 256 32Z" fill="white"/>
<path d="M368 272H144C135.168 272 128 264.832 128 256C128 247.168 135.168 240 144 240H368C376.832 240 384 247.168 384 256C384 264.832 376.832 272 368 272Z" fill="white"/>
<path d="M256 384C247.168 384 240 376.832 240 368V144C240 135.168 247.168 128 256 128C264.832 128 272 135.168 272 144V368C272 376.832 264.832 384 256 384Z" fill="white"/>
</svg>
